Coordinates
version=1
nRows=29
nColumns=24
inDegrees=yes

Units are S.I. units (second, meters, Newtons, ...)
Angles are in degrees.

endheader
time	pelvis_tilt	pelvis_list	pelvis_rotation	pelvis_tx	pelvis_ty	pelvis_tz	hip_flexion_r	hip_adduction_r	hip_rotation_r	knee_angle_r	ankle_angle_r	subtalar_angle_r	mtp_angle_r	hip_flexion_l	hip_adduction_l	hip_rotation_l	knee_angle_l	ankle_angle_l	subtalar_angle_l	mtp_angle_l	lumbar_extension	lumbar_bending	lumbar_rotation
      1.00783333	     -2.48303554	     -0.57177439	      1.07931197	      0.44275014	      0.99479712	      0.31031813	     14.97077634	      4.51367216	      2.19397766	    -24.52121864	     15.01422100	    -10.32203744	     -2.54040029	     15.62502489	     -1.94951392	     -0.69791006	    -70.29001997	     -7.65301580	     -2.57239736	      6.41672489	     -9.66557817	      9.54191240	     -2.69495744
      1.01200000	     -2.42785770	     -0.42437090	      0.87779997	      0.44734321	      0.99583308	      0.31075750	     14.40005583	      4.40151927	      2.34530764	    -24.06542714	     15.06693833	    -10.19227331	     -2.50749350	     16.14486503	     -1.87001716	     -0.93177876	    -70.10303039	     -6.58793205	     -2.26519692	      6.44593860	     -9.78554157	      9.29713264	     -2.28626231
      1.01616667	     -2.38028107	     -0.28090191	      0.67735696	      0.45193801	      0.99683872	      0.31118640	     13.83318481	      4.28823252	      2.49457982	    -23.59619625	     15.10958502	    -10.06691030	     -2.47335633	     16.66397273	     -1.79829424	     -1.16781169	    -69.87015777	     -5.54730916	     -1.96803337	      6.46674956	     -9.89394609	      9.05780480	     -1.88235480
      1.02033333	     -2.34094283	     -0.13795615	      0.46788329	      0.45653325	      0.99780994	      0.31159971	     13.27333284	      4.17013151	      2.64440940	    -23.11715296	     15.12571251	     -9.93618237	     -2.42632110	     17.17995691	     -1.72561104	     -1.40587008	    -69.58976076	     -4.54345352	     -1.71344130	      6.47126356	     -9.99643514	      8.82029854	     -1.42814956
      1.02450000	     -2.27873583	      0.02162611	      0.27252843	      0.46113541	      0.99878468	      0.31200031	     12.69305172	      4.02689799	      2.77063019	    -22.65006574	     15.19169088	     -9.79626335	     -2.39118380	     17.66052368	     -1.64325645	     -1.65166143	    -69.25673428	     -3.57193150	     -1.43359877	      6.47410512	    -10.10310497	      8.56660869	     -1.10584782
      1.02866667	     -2.22028173	      0.16471356	      0.07377908	      0.46573391	      0.99972503	      0.31238926	     12.10952465	      3.89665338	      2.90253625	    -22.16101940	     15.22857424	     -9.65079030	     -2.35391533	     18.13625201	     -1.57772706	     -1.89051092	    -68.88452591	     -2.63404518	     -1.17976325	      6.46520999	    -10.21514485	      8.33238833	     -0.72232421
      1.03283333	     -2.16505878	      0.31444304	     -0.12597496	      0.47033401	      1.00063011	      0.31276158	     11.53396470	      3.75345770	      3.02767099	    -21.67803902	     15.26061406	     -9.50381265	     -2.31538168	     18.60348122	     -1.50622334	     -2.13558249	    -68.46360733	     -1.74754943	     -0.96924278	      6.44493351	    -10.31862875	      8.09215434	     -0.34863283
      1.03700000	     -2.09932666	      0.46967514	     -0.32291750	      0.47493508	      1.00153014	      0.31311668	     10.94605241	      3.59807394	      3.14714175	    -21.18951803	     15.29721754	     -9.34272386	     -2.27600102	     19.04684012	     -1.42728482	     -2.37626364	    -67.99303373	     -0.91327579	     -0.77878843	      6.41459069	    -10.43364062	      7.84555107	      0.01791932
      1.04116667	     -2.02159836	      0.61103411	     -0.52083921	      0.47952930	      1.00239956	      0.31345657	     10.34621637	      3.45251050	      3.25993107	    -20.69694755	     15.32371588	     -9.17962316	     -2.23453921	     19.46833538	     -1.36353349	     -2.61420006	    -67.48551679	     -0.11484878	     -0.62189451	      6.37199137	    -10.56163997	      7.61600183	      0.38468566
      1.04533333	     -1.96586887	      0.76671118	     -0.71406877	      0.48411706	      1.00321600	      0.31376510	      9.77496275	      3.28494884	      3.37390740	    -20.21238184	     15.35715500	     -9.00948916	     -2.19414924	     19.90170225	     -1.27652502	     -2.84102462	    -66.92813732	      0.62022870	     -0.49626969	      6.32208414	    -10.66736996	      7.38183639	      0.73281061
      1.04950000	     -1.89687261	      0.90778526	     -0.90342799	      0.48871568	      1.00400211	      0.31406352	      9.18959740	      3.12744204	      3.46972274	    -19.72617556	     15.38717609	     -8.83465559	     -2.15465679	     20.30962767	     -1.20555913	     -3.06108322	    -66.33248213	      1.31300440	     -0.40574626	      6.26644940	    -10.77584903	      7.16876206	      1.06650607
      1.05366667	     -1.80710930	      1.04759135	     -1.09314279	      0.49331801	      1.00478367	      0.31435189	      8.58187947	      2.96541462	      3.55663874	    -19.23554328	     15.41427860	     -8.64912621	     -2.11248993	     20.68275585	     -1.13585419	     -3.28101653	    -65.69593944	      1.95710880	     -0.35040931	      6.19780777	    -10.91206075	      6.94134483	      1.41300422
      1.05783333	     -1.75234017	      1.17807437	     -1.27690246	      0.49791027	      1.00546436	      0.31462967	      8.01641986	      2.81102781	      3.64152241	    -18.75187843	     15.44788063	     -8.46197284	     -2.06420160	     21.08775212	     -1.07254042	     -3.48358587	    -65.02910375	      2.54450022	     -0.33029322	      6.10903379	    -11.01019847	      6.71534665	      1.76408540
      1.06200000	     -1.66878530	      1.31551250	     -1.45851551	      0.50250180	      1.00615339	      0.31486469	      7.42490234	      2.64078857	      3.71385609	    -18.27489712	     15.47941241	     -8.26773112	     -2.01804944	     21.44524299	     -0.99097429	     -3.67458366	    -64.31168491	      3.08514356	     -0.34976132	      6.01696085	    -11.13532879	      6.50420634	      2.08002273
      1.06616667	     -1.58923953	      1.45740495	     -1.63604724	      0.50709862	      1.00679356	      0.31507967	      6.84446481	      2.45946125	      3.77051129	    -17.81044733	     15.52351837	     -8.05345144	     -1.96945036	     21.79463435	     -0.89839430	     -3.85328601	    -63.55381464	      3.57486662	     -0.40821595	      5.91470475	    -11.25651844	      6.28278069	      2.39247875
      1.07033333	     -1.52257788	      1.58581874	     -1.80958915	      0.51169535	      1.00737424	      0.31528803	      6.27876086	      2.29079006	      3.82599574	    -17.34651141	     15.56568645	     -7.84114023	     -1.91809785	     22.14689981	     -0.81425048	     -4.00879633	    -62.76126169	      4.02148852	     -0.49510506	      5.79882785	    -11.36024554	      6.08298439	      2.71082547
      1.07450000	     -1.44136692	      1.71454022	     -1.97555627	      0.51629765	      1.00794378	      0.31546437	      5.69742627	      2.11544811	      3.86694578	    -16.87985158	     15.60175915	     -7.63172467	     -1.87273112	     22.46931826	     -0.72165069	     -4.14980629	    -61.92612010	      4.41973570	     -0.61829640	      5.68997668	    -11.47629343	      5.88254832	      2.98904095
      1.07866667	     -1.35941488	      1.84482128	     -2.13965401	      0.52089731	      1.00846572	      0.31562759	      5.12256802	      1.93432668	      3.89837854	    -16.42687228	     15.64950120	     -7.41052210	     -1.82579019	     22.77737981	     -0.62048576	     -4.27545341	    -61.05198605	      4.77413177	     -0.77544301	      5.57316810	    -11.59623353	      5.68039617	      3.27840308
      1.08283333	     -1.27814130	      1.96284939	     -2.29767649	      0.52549823	      1.00893273	      0.31576905	      4.55308511	      1.76339907	      3.92263025	    -15.98461123	     15.70539022	     -7.17997851	     -1.77468571	     23.07543778	     -0.52459926	     -4.37688528	    -60.14763470	      5.09113533	     -0.95813255	      5.43892390	    -11.71677130	      5.49573638	      3.56862217
      1.08700000	     -1.22728520	      2.07895830	     -2.45307981	      0.53009020	      1.00930090	      0.31588072	      4.02861293	      1.59131013	      3.93593887	    -15.56388022	     15.71506092	     -6.96958180	     -1.74025412	     23.39387337	     -0.42394052	     -4.46068577	    -59.20928571	      5.39359486	     -1.16437429	      5.34405295	    -11.79231901	      5.33619505	      3.79209840
      1.09116667	     -1.13222490	      2.19283883	     -2.59586603	      0.53470200	      1.00972771	      0.31598454	      3.44101802	      1.41748837	      3.94248981	    -15.11199776	     15.75937903	     -6.74983386	     -1.70462049	     23.64498126	     -0.31579935	     -4.52199434	    -58.21937377	      5.62073975	     -1.41013948	      5.24140973	    -11.92739852	      5.15352357	      4.04913549
      1.09533333	     -1.05995170	      2.29833909	     -2.72971635	      0.53930884	      1.01004105	      0.31606026	      2.89008632	      1.25126601	      3.93853280	    -14.69162266	     15.88324366	     -6.50143763	     -1.65012691	     23.91349831	     -0.20794666	     -4.55289251	    -57.20866720	      5.79143476	     -1.68621775	      5.08121950	    -12.04176166	      4.97075891	      4.36184423
      1.09950000	     -0.98337598	      2.38620410	     -2.85362917	      0.54392252	      1.01031835	      0.31612821	      2.33002889	      1.10275386	      3.92359998	    -14.26019388	     15.93692570	     -6.29661000	     -1.60652085	     24.16317503	     -0.11503868	     -4.56531258	    -56.16596993	      5.95626257	     -1.96370318	      4.94148829	    -12.14734273	      4.82384195	      4.59354482
      1.10366667	     -0.93471652	      2.48919754	     -2.97660022	      0.54853409	      1.01051132	      0.31616753	      1.81511123	      0.93646490	      3.90548982	    -13.86056026	     16.01349823	     -6.07324080	     -1.56015773	     24.42556025	      0.00340578	     -4.55693769	    -55.07942836	      6.06944456	     -2.28561625	      4.78763313	    -12.22501092	      4.66281718	      4.83874983
      1.10783333	     -0.86366518	      2.56801361	     -3.10929433	      0.55313186	      1.01066395	      0.31620874	      1.28957395	      0.79161421	      3.87239121	    -13.49010409	     16.11939671	     -5.76996884	     -1.44918932	     24.65232444	      0.09093234	     -4.54918604	    -53.97607302	      6.21014291	     -2.58820119	      4.40346439	    -12.34086125	      4.52259457	      5.14320167
      1.11200000	     -0.82894541	      2.65183354	     -3.19309920	      0.55775932	      1.01076306	      0.31620137	      0.77434264	      0.64784974	      3.84457859	    -13.06232065	     16.10840050	     -5.65673684	     -1.42580683	     24.90084887	      0.20990492	     -4.46889774	    -52.81890885	      6.24194686	     -2.91844958	      4.30486057	    -12.38635593	      4.39672260	      5.26916181
      1.11616667	     -0.75526685	      2.72471563	     -3.28572413	      0.56238418	      1.01086108	      0.31620601	      0.22167716	      0.51313707	      3.81841473	    -12.64638005	     16.16858720	     -5.49053765	     -1.39861587	     25.09081070	      0.31637047	     -4.38718217	    -51.63050790	      6.24798745	     -3.29354822	      4.19503751	    -12.49547702	      4.27581483	      5.46922718
      1.12033333	     -0.70372492	      2.78805411	     -3.37008083	      0.56700071	      1.01086290	      0.31618945	     -0.29947786	      0.38913346	      3.78503121	    -12.24986972	     16.23341894	     -5.31984799	     -1.37245846	     25.29246929	      0.41459883	     -4.28736079	    -50.41676699	      6.23495517	     -3.65635956	      4.08500598	    -12.57684445	      4.16080695	      5.67108494
      1.12450000	     -0.67358595	      2.84037763	     -3.44260023	      0.57162039	      1.01078984	      0.31615285	     -0.79523627	      0.27890424	      3.74462566	    -11.86188919	     16.30485542	     -5.16273746	     -1.34671384	     25.50324624	      0.50627514	     -4.16104365	    -49.17384645	      6.18388876	     -4.03238367	      3.97126903	    -12.63652475	      4.05846957	      5.86843948
